<svg xmlns="http://www.w3.org/2000/svg" viewBox="0 0 231.46 33.87"><defs><style>.cls-1{fill:#f9b21e;}.cls-2{fill:#fff;}.cls-3{fill:#9a9999;}.cls-4{fill:#fab31e;}</style></defs><title>TOPUNIVERSITIESUPPERCASE-inverted</title><g id="Layer_2" data-name="Layer 2"><g id="Layer_1-2" data-name="Layer 1"><path class="cls-1" d="M2.28,0H33.91a2.27,2.27,0,0,1,2.27,2.27V31.6a2.27,2.27,0,0,1-2.27,2.27H2.28A2.28,2.28,0,0,1,0,31.6V2.28A2.28,2.28,0,0,1,2.28,0Z"/><path class="cls-2" d="M14.59,18.38a10.08,10.08,0,0,1-3.24.54c-6.06,0-8.41-4.48-8.41-8.2a8,8,0,0,1,8.47-8c4.94,0,8.37,3,8.37,7.83a8.3,8.3,0,0,1-3.6,6.8l4.16,2.13c4.35,2.23,7.1,2.46,8.51,2.46a11.5,11.5,0,0,0,4-.73,1.36,1.36,0,0,1,.31-.1.19.19,0,0,1,.18.19c0,.12-.1.18-.25.25a15.1,15.1,0,0,1-6.55,1.54c-3.12,0-5.3-.82-8.74-2.8l-3.24-1.91Zm2.29-7.27c0-5-3.09-7.4-5.95-7.4-2.7,0-5.12,1.74-5.12,6.53s3,7.65,6.3,7.65C13.76,17.89,16.88,17.17,16.88,11.11Z"/><path class="cls-2" d="M23.27,18.38c-.33-.14-.39-.24-.39-.7,0-1.13.08-2.37.1-2.7s.08-.54.25-.54.21.18.21.35a4.44,4.44,0,0,0,.18,1.05,2.84,2.84,0,0,0,2.95,2.09,2.51,2.51,0,0,0,2.77-2.36c0-1-.31-2-2-3.3l-.95-.75C24.1,9.75,23.31,8.3,23.31,6.63c0-2.28,1.9-3.91,4.77-3.91a10.19,10.19,0,0,1,2.75.35c.19.05.29.11.29.25S31,4.19,31,5.8c0,.45-.06.62-.23.62s-.21-.12-.21-.37a2.52,2.52,0,0,0-.53-1.37,2.63,2.63,0,0,0-2.26-1A2.18,2.18,0,0,0,25.35,5.8c0,1,.48,1.67,2.2,3l.57.43c2.48,1.92,3.39,3.31,3.39,5.27a4.15,4.15,0,0,1-1.94,3.59,6,6,0,0,1-3.28.85A7.06,7.06,0,0,1,23.27,18.38Z"/><path class="cls-3" d="M33.26,30.16c0,.39-6.74.71-15,.71s-15.06-.32-15.06-.71,6.75-.71,15.06-.71S33.26,29.77,33.26,30.16Z"/><path class="cls-2" d="M57.67,9V11.4H52.93V24.76H50V11.4H45.24V9Z"/><path class="cls-2" d="M73.8,16.88a8.88,8.88,0,0,1-.57,3.21,7.68,7.68,0,0,1-1.63,2.55,7.24,7.24,0,0,1-2.52,1.68,9,9,0,0,1-6.52,0A7.28,7.28,0,0,1,60,22.64a7.68,7.68,0,0,1-1.63-2.55,9.2,9.2,0,0,1,0-6.43A7.68,7.68,0,0,1,60,11.11a7.44,7.44,0,0,1,2.53-1.69,8.56,8.56,0,0,1,3.26-.6,8.34,8.34,0,0,1,3.26.61,7.52,7.52,0,0,1,2.52,1.68,7.68,7.68,0,0,1,1.63,2.55A8.9,8.9,0,0,1,73.8,16.88Zm-3,0a7.28,7.28,0,0,0-.34-2.33,5,5,0,0,0-1-1.75,4.17,4.17,0,0,0-1.57-1.1,5.88,5.88,0,0,0-4.16,0,4.17,4.17,0,0,0-1.57,1.1,4.92,4.92,0,0,0-1,1.75,7.27,7.27,0,0,0-.35,2.33,7.25,7.25,0,0,0,.35,2.32,4.92,4.92,0,0,0,1,1.75A4.27,4.27,0,0,0,63.74,22a5.88,5.88,0,0,0,4.16,0A4.27,4.27,0,0,0,69.47,21a5,5,0,0,0,1-1.75A7.26,7.26,0,0,0,70.79,16.88Z"/><path class="cls-2" d="M79.14,19.21v5.55H76.21V9h5.14a8.86,8.86,0,0,1,2.73.38,5.2,5.2,0,0,1,1.91,1A4,4,0,0,1,87.1,12a5.59,5.59,0,0,1,.36,2,5.72,5.72,0,0,1-.38,2.1,4.58,4.58,0,0,1-1.14,1.64A5.43,5.43,0,0,1,84,18.83a8.66,8.66,0,0,1-2.68.38Zm0-2.29h2.21a4.54,4.54,0,0,0,1.4-.2,2.68,2.68,0,0,0,1-.58,2.28,2.28,0,0,0,.59-.92,3.51,3.51,0,0,0,.2-1.2,3.17,3.17,0,0,0-.2-1.14,2.14,2.14,0,0,0-.59-.88,2.63,2.63,0,0,0-1-.55,4.56,4.56,0,0,0-1.4-.19H79.14Z"/><path class="cls-4" d="M96.08,22.39a3.82,3.82,0,0,0,1.52-.28,3.22,3.22,0,0,0,1.14-.8,3.51,3.51,0,0,0,.71-1.24,5.24,5.24,0,0,0,.24-1.64V9h2.93v9.44a7.28,7.28,0,0,1-.45,2.6,5.7,5.7,0,0,1-1.3,2.06,6.12,6.12,0,0,1-2.06,1.36,7.38,7.38,0,0,1-2.73.48,7.29,7.29,0,0,1-2.72-.48,6,6,0,0,1-2.06-1.36A5.81,5.81,0,0,1,90,21a7.07,7.07,0,0,1-.46-2.6V9h2.94v9.43a5.24,5.24,0,0,0,.24,1.64,3.79,3.79,0,0,0,.7,1.25,3.27,3.27,0,0,0,1.13.8A3.88,3.88,0,0,0,96.08,22.39Z"/><path class="cls-4" d="M107.47,9a.61.61,0,0,1,.24.07.81.81,0,0,1,.2.14,2.85,2.85,0,0,1,.22.24L116.4,20c0-.25-.05-.5-.06-.74s0-.47,0-.68V9h2.59V24.76h-1.52a1.43,1.43,0,0,1-.58-.11,1.34,1.34,0,0,1-.44-.4l-8.24-10.49c0,.23,0,.46.05.69s0,.44,0,.63v9.68h-2.58V9h1.54Z"/><path class="cls-4" d="M125.39,24.76h-2.94V9h2.94Z"/><path class="cls-4" d="M127.39,9h2.36a1,1,0,0,1,.62.19,1.09,1.09,0,0,1,.36.48l3.71,9.61c.12.32.24.66.35,1s.22.77.33,1.19a12.59,12.59,0,0,1,.62-2.22l3.69-9.61a1.16,1.16,0,0,1,.35-.46A1,1,0,0,1,140.4,9h2.37L136.4,24.76h-2.65Z"/><path class="cls-4" d="M154.35,9v2.34h-7V15.7h5.5V18h-5.5v4.46h7v2.35h-9.94V9Z"/><path class="cls-4" d="M159.92,18.6v6.16H157V9h4.81a10.05,10.05,0,0,1,2.76.34,5.22,5.22,0,0,1,1.89.93,3.65,3.65,0,0,1,1.08,1.43,4.78,4.78,0,0,1,.34,1.84,4.91,4.91,0,0,1-.23,1.5,4.54,4.54,0,0,1-.68,1.29,4.6,4.6,0,0,1-1.09,1,5.47,5.47,0,0,1-1.48.7,2.86,2.86,0,0,1,1,.91l4,5.82h-2.64a1.25,1.25,0,0,1-1.1-.59l-3.31-5.05a1.19,1.19,0,0,0-.41-.4,1.44,1.44,0,0,0-.66-.12Zm0-2.11h1.84a4.77,4.77,0,0,0,1.44-.2,2.68,2.68,0,0,0,1-.58,2.24,2.24,0,0,0,.6-.86,3,3,0,0,0,.19-1.1,2.25,2.25,0,0,0-.79-1.85,3.81,3.81,0,0,0-2.41-.64h-1.88Z"/><path class="cls-4" d="M179.62,11.86a.81.81,0,0,1-.28.34.73.73,0,0,1-.37.1,1,1,0,0,1-.49-.17l-.65-.38a4.63,4.63,0,0,0-.86-.37,3.5,3.5,0,0,0-1.18-.17,3.73,3.73,0,0,0-1.06.14,2.4,2.4,0,0,0-.76.41,1.66,1.66,0,0,0-.46.63,1.91,1.91,0,0,0-.16.8,1.45,1.45,0,0,0,.31.93,2.88,2.88,0,0,0,.83.63,8.47,8.47,0,0,0,1.16.47l1.34.44c.45.16.9.34,1.33.54a4.54,4.54,0,0,1,1.17.79,3.48,3.48,0,0,1,.82,1.16,4,4,0,0,1,.31,1.67,5.5,5.5,0,0,1-.36,2,4.67,4.67,0,0,1-1.07,1.62,5,5,0,0,1-1.72,1.09,6.2,6.2,0,0,1-2.32.4,7.36,7.36,0,0,1-1.48-.15,6.66,6.66,0,0,1-1.4-.42,7,7,0,0,1-1.25-.65,6.29,6.29,0,0,1-1.05-.85l.85-1.41a1.16,1.16,0,0,1,.29-.25.73.73,0,0,1,.38-.11,1.05,1.05,0,0,1,.59.23c.21.15.46.31.74.49a6.06,6.06,0,0,0,1,.5,3.88,3.88,0,0,0,1.4.22,2.92,2.92,0,0,0,1.94-.59,2.14,2.14,0,0,0,.69-1.71,1.57,1.57,0,0,0-.32-1,2.48,2.48,0,0,0-.82-.66,5.84,5.84,0,0,0-1.16-.45c-.44-.13-.88-.26-1.33-.41a10.19,10.19,0,0,1-1.33-.52,4.3,4.3,0,0,1-1.17-.79,3.58,3.58,0,0,1-.82-1.23,4.64,4.64,0,0,1-.31-1.82A4.29,4.29,0,0,1,172,10.22a4.92,4.92,0,0,1,1.62-1,6,6,0,0,1,2.19-.38,7.34,7.34,0,0,1,2.57.44,5.65,5.65,0,0,1,2,1.22Z"/><path class="cls-4" d="M186.17,24.76h-2.94V9h2.94Z"/><path class="cls-4" d="M200.82,9V11.4h-4.74V24.76h-2.93V11.4h-4.77V9Z"/><path class="cls-4" d="M206,24.76h-3V9h3Z"/><path class="cls-4" d="M219.47,9v2.34h-7V15.7H218V18h-5.51v4.46h7v2.35h-9.94V9Z"/><path class="cls-4" d="M230.46,11.86a.9.9,0,0,1-.28.34.77.77,0,0,1-.38.1,1,1,0,0,1-.49-.17l-.64-.38a5.06,5.06,0,0,0-.87-.37,3.44,3.44,0,0,0-1.17-.17,3.73,3.73,0,0,0-1.06.14,2.29,2.29,0,0,0-.76.41,1.8,1.8,0,0,0-.47.63,2.07,2.07,0,0,0-.15.8,1.39,1.39,0,0,0,.31.93,2.83,2.83,0,0,0,.82.63,8.63,8.63,0,0,0,1.17.47l1.34.44c.45.16.89.34,1.33.54a4.54,4.54,0,0,1,1.17.79,3.63,3.63,0,0,1,.82,1.16,4,4,0,0,1,.31,1.67,5.5,5.5,0,0,1-.36,2A4.67,4.67,0,0,1,230,23.44a5,5,0,0,1-1.72,1.09,6.24,6.24,0,0,1-2.32.4,7.29,7.29,0,0,1-1.48-.15,6.49,6.49,0,0,1-1.4-.42,7.48,7.48,0,0,1-1.26-.65,6.21,6.21,0,0,1-1-.85l.85-1.41a1.16,1.16,0,0,1,.29-.25.7.7,0,0,1,.38-.11,1,1,0,0,1,.58.23l.75.49a6.06,6.06,0,0,0,1,.5,3.85,3.85,0,0,0,1.4.22,2.92,2.92,0,0,0,1.94-.59,2.17,2.17,0,0,0,.68-1.71,1.56,1.56,0,0,0-.31-1,2.48,2.48,0,0,0-.82-.66,5.71,5.71,0,0,0-1.17-.45c-.43-.13-.88-.26-1.33-.41a11.43,11.43,0,0,1-1.33-.52,4.41,4.41,0,0,1-1.16-.79,3.75,3.75,0,0,1-.83-1.23,4.83,4.83,0,0,1-.31-1.82,4.35,4.35,0,0,1,1.35-3.12,4.92,4.92,0,0,1,1.62-1,6,6,0,0,1,2.19-.38,7.34,7.34,0,0,1,2.57.44,5.74,5.74,0,0,1,2,1.22Z"/></g></g></svg>